Coordinates
version=1
nRows=16
nColumns=36
inDegrees=yes

Units are S.I. units (second, meters, Newtons, ...)
If the header above contains a line with 'inDegrees', this indicates whether rotational values are in degrees (yes) or radians (no).

endheader
time	pelvis_tilt	pelvis_list	pelvis_rotation	pelvis_tx	pelvis_ty	pelvis_tz	hip_flexion_r	hip_adduction_r	hip_rotation_r	knee_angle_r	knee_angle_r_beta	ankle_angle_r	subtalar_angle_r	mtp_angle_r	hip_flexion_l	hip_adduction_l	hip_rotation_l	knee_angle_l	knee_angle_l_beta	ankle_angle_l	subtalar_angle_l	mtp_angle_l	lumbar_extension	lumbar_bending	lumbar_rotation	arm_flex_r	arm_add_r	arm_rot_r	elbow_flex_r	pro_sup_r	arm_flex_l	arm_add_l	arm_rot_l	elbow_flex_l	pro_sup_l
      2.23333330	    -31.60111277	      7.77139602	     -4.68581736	      0.78538585	      0.82867560	      0.07455090	     75.11891057	    -24.77392703	     -8.62051401	     62.33519340	      1.08795436	     19.98836648	      0.87621456	     -7.49999987	     72.44625747	    -10.11819834	     -3.99989118	     62.08937644	      1.08366405	     27.13151868	      4.80614600	     -7.49999987	    -31.18034110	      0.92731761	      9.96960095	     99.82947179	     -4.95771559	     73.15087719	    126.40318632	    101.25907653	     89.71763281	      8.09914249	     67.93269800	    117.88451555	    105.34521141
      2.25000000	    -31.11329896	      7.71423380	     -4.84317930	      0.78416727	      0.84003935	      0.07470449	     73.17723083	    -24.53434591	     -9.40771170	     60.41090018	      1.05436911	     19.17019966	      1.15620739	     -7.49999987	     70.58255115	    -10.29841926	     -4.51215692	     59.96081388	      1.04651362	     26.10476792	      4.95032005	     -7.49999987	    -30.68000827	      0.73350528	      9.53617053	     98.55173853	     -4.02445427	     72.28052650	    126.20146218	    101.64186182	     88.77336673	      8.17136325	     67.47377511	    118.27240655	    105.31679997
      2.26666670	    -30.47663562	      7.72959488	     -5.05064779	      0.79227038	      0.84762274	      0.07360827	     71.06767147	    -24.34533509	    -10.17756025	     58.45347587	      1.02020561	     18.46964684	      1.45147306	     -7.49999987	     68.41941677	    -10.25127296	     -4.86434126	     57.73580881	      1.00767996	     25.12189505	      4.96766318	     -7.49999987	    -29.89333683	      0.75445672	      8.79031248	     96.12829325	     -2.47034437	     70.95316320	    125.54941313	    105.97083004	     86.08465681	      7.57936436	     66.08985281	    119.44746326	    106.86008957
      2.28333330	    -29.64724949	      7.83787709	     -5.35412687	      0.79592650	      0.85506044	      0.07724058	     68.94544614	    -24.07228673	    -10.64834363	     56.62817247	      0.98834806	     17.85020299	      1.76481154	     -7.49999987	     66.08440526	    -10.16697090	     -5.25905983	     55.62542615	      0.97084683	     24.39982830	      5.06085409	     -7.49999987	    -28.74146809	      0.49663509	      7.93574965	     93.61569566	     -0.46160652	     69.52722351	    125.90529503	    107.01309200	     83.45938198	      6.89030295	     64.70283031	    121.59676832	    107.70199263
      2.30000000	    -28.84950590	      7.91845862	     -5.63143208	      0.79735017	      0.86169158	      0.07810405	     66.98190254	    -23.74294174	    -10.92750430	     54.96431918	      0.95930834	     17.34698120	      1.98282907	     -7.49999987	     63.93594279	    -10.11700531	     -5.63591842	     53.70994002	      0.93741529	     23.82722198	      5.30992366	     -7.49999987	    -27.65357432	      0.12006499	      7.34100207	     91.78987034	      0.65290399	     69.14570930	    126.59252733	    106.95116148	     81.80892747	      6.18557751	     63.51720894	    122.22636295	    107.57033983
      2.31666670	    -27.87011134	      8.03099259	     -5.96478441	      0.80104382	      0.87963900	      0.08200652	     64.45609627	    -23.39208740	    -11.42631377	     52.72261883	      0.92018329	     16.66185650	      2.29432974	     -7.49999987	     61.17308220	     -9.95006298	     -6.07342466	     51.12199477	      0.89224713	     22.89148881	      5.37475338	     -7.49999987	    -26.85209200	     -0.35331737	      6.80904856	     89.56036126	      0.73589796	     69.77474183	    126.39704176	    107.41356135	     79.48878402	      5.17143641	     62.71187400	    121.89652717	    107.94531498
      2.33333330	    -26.96359876	      8.06356277	     -6.30063132	      0.80785474	      0.88373542	      0.08675525	     62.07457774	    -22.89675271	    -11.75885899	     50.66594364	      0.88428754	     16.07847775	      2.47449150	     -7.49999987	     58.57515205	     -9.95392107	     -6.54798640	     48.74048782	      0.85068199	     22.00635318	      5.76291810	     -7.49999987	    -25.80232595	     -0.84325574	      6.53113547	     87.34175597	      1.59669141	     69.33272859	    126.86234210	    107.60996383	     77.94451659	      4.47752300	     62.12988645	    122.05782404	    107.95353834
      2.35000000	    -25.68445388	      8.04880201	     -6.78282601	      0.82332051	      0.89581776	      0.09282784	     58.81177385	    -22.30963537	    -12.37513434	     48.02392430	      0.83817560	     15.63149016	      2.98626580	     -7.49999987	     54.95300956	     -9.80104163	     -6.86315427	     45.58788961	      0.79565877	     21.01521437	      5.91578950	     -7.49999987	    -24.63698667	     -1.36437633	      6.27150245	     84.18694044	      2.94286840	     69.05311578	    126.56290064	    109.00946825	     74.25906496	      4.34912557	     61.64452806	    122.88049245	    108.96135178
      2.36666670	    -24.57775485	      7.98743334	     -7.31840765	      0.82908559	      0.90349085	      0.09743590	     55.86122471	    -21.56206052	    -12.66695129	     45.57027882	      0.79535141	     15.19087132	      3.38659597	     -7.49999987	     51.58173357	     -9.88400963	     -7.38415352	     42.68232357	      0.74494708	     20.06942466	      6.64724667	     -7.49999987	    -23.51187155	     -2.01664146	      6.29628637	     81.51256539	      3.81229864	     68.00441227	    126.44362676	    109.48638937	     71.60828215	      4.37838385	     61.33474908	    123.14930289	    109.30996023
      2.38333330	    -23.42177356	      7.83656864	     -7.86487884	      0.83228641	      0.91407324	      0.10070487	     52.80920710	    -20.73415703	    -12.93110595	     43.09078947	      0.75207615	     14.49875892	      3.66261160	     -7.49999987	     48.00445988	     -9.98008967	     -7.90592161	     39.49928203	      0.68939252	     19.09639594	      7.32487395	     -7.49999987	    -22.28038311	     -2.64436905	      6.12750626	     78.93205055	      3.94769389	     66.97865047	    125.90394742	    109.55701668	     69.24301146	      3.99775391	     60.72901315	    122.48325603	    109.30307562
      2.40000000	    -22.31730483	      7.64265696	     -8.41779631	      0.83963766	      0.92891950	      0.09903930	     49.67329736	    -19.94135061	    -13.40691809	     40.35323504	      0.70429682	     13.58611078	      3.80685176	     -7.49999987	     44.36249937	    -10.05678383	     -8.60764891	     36.00109770	      0.62833769	     17.70920518	      7.96328019	     -7.49999987	    -21.27027255	     -3.05572363	      5.97856010	     75.83779598	      3.34855531	     66.32691629	    126.24598429	    110.65486436	     67.06693022	      4.90128083	     62.20722364	    122.48046011	    110.24912101
      2.41666670	    -21.44751729	      7.42692878	     -8.90161292	      0.84451366	      0.93607170	      0.09683355	     46.95266337	    -19.20031554	    -13.88411496	     37.80558724	      0.65983197	     12.64176289	      4.01595683	     -7.49999987	     41.21467372	    -10.04019718	     -9.11306771	     32.76747468	      0.57190032	     16.39576330	      8.23294253	     -7.49999987	    -20.04588545	     -3.16805406	      5.32880678	     73.65490534	      3.79970674	     64.92385899	    126.06463347	    110.59139209	     65.53371057	      5.20976429	     62.10308548	    122.07413535	    110.25684110
      2.43333330	    -20.55518783	      7.16800933	     -9.44878416	      0.85589990	      0.94337559	      0.09978539	     43.88938800	    -18.29049479	    -14.43763590	     34.76061998	      0.60668727	     11.71350087	      4.37595246	     -7.49999987	     37.80056810	     -9.93996942	     -9.44217294	     29.19401524	      0.50953169	     14.86874943	      8.29583420	     -7.49999987	    -18.67784172	     -3.20460198	      5.04288087	     70.52646007	      3.72474493	     65.87697931	    126.50557762	    110.58572680	     62.81557004	      4.90406599	     63.14877822	    121.94157368	    110.31633434
      2.45000000	    -19.11591924	      6.61206923	     -9.94644664	      0.85397169	      0.95381339	      0.09954355	     40.34713825	    -17.24971116	    -14.83152127	     31.76878095	      0.55446983	     10.69868036	      4.46915028	     -7.49999987	     34.26135507	     -9.99403868	     -9.58255488	     26.16097109	      0.45659508	     13.65640409	      8.10009877	     -7.49999987	    -18.32974668	     -3.04671084	      5.08742511	     69.25422837	      4.12868028	     64.60838691	    126.31995482	    110.51330199	     61.76046381	      5.91556377	     62.68930438	    121.26172109	    110.40983144
      2.46666670	    -17.62446657	      6.03559191	    -10.41071834	      0.86539219	      0.96446782	      0.10165431	     36.49478286	    -16.14205513	    -15.22002471	     28.40198423	      0.49570814	      9.50947326	      4.51659467	     -7.49999987	     30.38169413	     -9.92409540	     -9.67033975	     22.66503274	      0.39557945	     12.13492313	      7.77831770	     -7.49999987	    -18.13693569	     -2.81467953	      5.43246942	     67.81775505	      3.85311114	     65.51238183	    126.71064877	    110.34341262	     58.93049371	      6.11655626	     62.91651688	    120.52187874	    110.57445328
      2.48333330	    -17.11093150	      5.80022719	    -10.84298643	      0.86354754	      0.96736835	      0.10159343	     34.36413365	    -15.29447350	    -15.21669516	     25.86587602	      0.45144470	      8.54814187	      4.60292855	     -7.49999987	     27.95390624	     -9.81299092	     -9.83038044	     19.74707192	      0.34465142	     11.00117977	      7.72435710	     -7.49999987	    -16.90598890	     -2.73055997	      5.77495008	     66.78133058	      3.94756731	     66.24688222	    127.31408942	    110.29596350	     57.11800771	      6.47718551	     62.79189998	    120.53290679	    110.57497637
